Coordinates
version=1
nRows=62
nColumns=21
inDegrees=no
endheader
time	ra_wr_s_p	ra_wr_e_f	ra_cmc1_ad_ab	ra_cmc1_f_e	ra_mcp1_f_e	ra_ip1_f_e	ra_mcp2_e_f	ra_pip2_e_f	ra_dip2_e_f	ra_mcp3_e_f	ra_pip3_e_f	ra_dip3_e_f	ra_mcp4_e_f	ra_pip4_e_f	ra_dip4_e_f	ra_mcp5_e_f	ra_pip5_e_f	ra_dip5_e_f	ra_el_e_f	ra_wr_ad_ab
0.125000	0.000000	0.087300	0.463681	0.463681	-0.417297	-0.834594	0.834594	1.112792	0.834594	0.834594	1.112792	0.834594	0.834594	1.112792	0.834594	0.834594	1.112792	0.834594	0.177641	0.085000
0.126000	0.000000	0.087300	0.464254	0.464254	-0.417812	-0.835625	0.835625	1.114166	0.835625	0.835625	1.114166	0.835625	0.835625	1.114166	0.835625	0.835625	1.114166	0.835625	0.181364	0.085000
0.127000	0.000000	0.087300	0.464835	0.464835	-0.418335	-0.836671	0.836671	1.115561	0.836671	0.836671	1.115561	0.836671	0.836671	1.115561	0.836671	0.836671	1.115561	0.836671	0.185142	0.085000
0.128000	0.000000	0.087300	0.465425	0.465425	-0.418866	-0.837732	0.837732	1.116976	0.837732	0.837732	1.116976	0.837732	0.837732	1.116976	0.837732	0.837732	1.116976	0.837732	0.188975	0.085000
0.129000	0.000000	0.087300	0.466023	0.466023	-0.419405	-0.838809	0.838809	1.118412	0.838809	0.838809	1.118412	0.838809	0.838809	1.118412	0.838809	0.838809	1.118412	0.838809	0.192864	0.085000
0.130000	0.000000	0.087300	0.466630	0.466630	-0.419951	-0.839902	0.839902	1.119869	0.839902	0.839902	1.119869	0.839902	0.839902	1.119869	0.839902	0.839902	1.119869	0.839902	0.196809	0.085000
0.131000	0.000000	0.087300	0.467246	0.467246	-0.420505	-0.841010	0.841010	1.121346	0.841010	0.841010	1.121346	0.841010	0.841010	1.121346	0.841010	0.841010	1.121346	0.841010	0.200810	0.085000
0.132000	0.000000	0.087300	0.467870	0.467870	-0.421067	-0.842134	0.842134	1.122845	0.842134	0.842134	1.122845	0.842134	0.842134	1.122845	0.842134	0.842134	1.122845	0.842134	0.204869	0.085000
0.133000	0.000000	0.087300	0.468503	0.468503	-0.421637	-0.843274	0.843274	1.124365	0.843274	0.843274	1.124365	0.843274	0.843274	1.124365	0.843274	0.843274	1.124365	0.843274	0.208986	0.085000
0.134000	0.000000	0.087300	0.469146	0.469146	-0.422215	-0.844430	0.844430	1.125907	0.844430	0.844430	1.125907	0.844430	0.844430	1.125907	0.844430	0.844430	1.125907	0.844430	0.213161	0.085000
0.135000	0.000000	0.087300	0.469797	0.469797	-0.422801	-0.845602	0.845602	1.127470	0.845602	0.845602	1.127470	0.845602	0.845602	1.127470	0.845602	0.845602	1.127470	0.845602	0.217394	0.085000
0.136000	0.000000	0.087300	0.470458	0.470458	-0.423396	-0.846791	0.846791	1.129055	0.846791	0.846791	1.129055	0.846791	0.846791	1.129055	0.846791	0.846791	1.129055	0.846791	0.221687	0.085000
0.137000	0.000000	0.087300	0.471127	0.471127	-0.423998	-0.847997	0.847997	1.130662	0.847997	0.847997	1.130662	0.847997	0.847997	1.130662	0.847997	0.847997	1.130662	0.847997	0.226040	0.085000
0.138000	0.000000	0.087300	0.471806	0.471806	-0.424609	-0.849219	0.849219	1.132291	0.849219	0.849219	1.132291	0.849219	0.849219	1.132291	0.849219	0.849219	1.132291	0.849219	0.230453	0.085000
0.139000	0.000000	0.087300	0.472494	0.472494	-0.425229	-0.850457	0.850457	1.133943	0.850457	0.850457	1.133943	0.850457	0.850457	1.133943	0.850457	0.850457	1.133943	0.850457	0.234926	0.085000
0.140000	0.000000	0.087300	0.473192	0.473192	-0.425857	-0.851713	0.851713	1.135618	0.851713	0.851713	1.135618	0.851713	0.851713	1.135618	0.851713	0.851713	1.135618	0.851713	0.239461	0.085000
0.141000	0.000000	0.087300	0.473899	0.473899	-0.426493	-0.852986	0.852986	1.137315	0.852986	0.852986	1.137315	0.852986	0.852986	1.137315	0.852986	0.852986	1.137315	0.852986	0.244057	0.085000
0.142000	0.000000	0.087300	0.474616	0.474616	-0.427138	-0.854276	0.854276	1.139035	0.854276	0.854276	1.139035	0.854276	0.854276	1.139035	0.854276	0.854276	1.139035	0.854276	0.248716	0.085000
0.143000	0.000000	0.087300	0.475342	0.475342	-0.427792	-0.855584	0.855584	1.140778	0.855584	0.855584	1.140778	0.855584	0.855584	1.140778	0.855584	0.855584	1.140778	0.855584	0.253437	0.085000
0.144000	0.000000	0.087300	0.476079	0.476079	-0.428454	-0.856909	0.856909	1.142545	0.856909	0.856909	1.142545	0.856909	0.856909	1.142545	0.856909	0.856909	1.142545	0.856909	0.258222	0.085000
0.145000	0.000000	0.087300	0.476824	0.476824	-0.429126	-0.858251	0.858251	1.144335	0.858251	0.858251	1.144335	0.858251	0.858251	1.144335	0.858251	0.858251	1.144335	0.858251	0.263070	0.085000
0.146000	0.000000	0.087300	0.477580	0.477580	-0.429806	-0.859611	0.859611	1.146149	0.859611	0.859611	1.146149	0.859611	0.859611	1.146149	0.859611	0.859611	1.146149	0.859611	0.267982	0.085000
0.147000	0.000000	0.087300	0.478346	0.478346	-0.430495	-0.860990	0.860990	1.147986	0.860990	0.860990	1.147986	0.860990	0.860990	1.147986	0.860990	0.860990	1.147986	0.860990	0.272959	0.085000
0.148000	0.000000	0.087300	0.479122	0.479122	-0.431193	-0.862386	0.862386	1.149848	0.862386	0.862386	1.149848	0.862386	0.862386	1.149848	0.862386	0.862386	1.149848	0.862386	0.278000	0.085000
0.149000	0.000000	0.087300	0.479907	0.479907	-0.431900	-0.863800	0.863800	1.151733	0.863800	0.863800	1.151733	0.863800	0.863800	1.151733	0.863800	0.863800	1.151733	0.863800	0.283107	0.085000
0.150000	0.000000	0.087300	0.480703	0.480703	-0.432616	-0.865233	0.865233	1.153643	0.865233	0.865233	1.153643	0.865233	0.865233	1.153643	0.865233	0.865233	1.153643	0.865233	0.288280	0.085000
0.151000	0.000000	0.087300	0.481509	0.481509	-0.433342	-0.866683	0.866683	1.155578	0.866683	0.866683	1.155578	0.866683	0.866683	1.155578	0.866683	0.866683	1.155578	0.866683	0.293519	0.085000
0.152000	0.000000	0.087300	0.482326	0.482326	-0.434076	-0.868153	0.868153	1.157537	0.868153	0.868153	1.157537	0.868153	0.868153	1.157537	0.868153	0.868153	1.157537	0.868153	0.298825	0.085000
0.153000	0.000000	0.087300	0.483152	0.483152	-0.434820	-0.869641	0.869641	1.159521	0.869641	0.869641	1.159521	0.869641	0.869641	1.159521	0.869641	0.869641	1.159521	0.869641	0.304199	0.085000
0.154000	0.000000	0.087300	0.483989	0.483989	-0.435574	-0.871147	0.871147	1.161530	0.871147	0.871147	1.161530	0.871147	0.871147	1.161530	0.871147	0.871147	1.161530	0.871147	0.309639	0.085000
0.155000	0.000000	0.087300	0.484837	0.484837	-0.436336	-0.872673	0.872673	1.163564	0.872673	0.872673	1.163564	0.872673	0.872673	1.163564	0.872673	0.872673	1.163564	0.872673	0.315148	0.085000
0.156000	0.000000	0.087300	0.485695	0.485695	-0.437109	-0.874217	0.874217	1.165623	0.874217	0.874217	1.165623	0.874217	0.874217	1.165623	0.874217	0.874217	1.165623	0.874217	0.320725	0.085000
0.157000	0.000000	0.087300	0.486564	0.486564	-0.437890	-0.875781	0.875781	1.167708	0.875781	0.875781	1.167708	0.875781	0.875781	1.167708	0.875781	0.875781	1.167708	0.875781	0.326371	0.085000
0.158000	0.000000	0.087300	0.487443	0.487443	-0.438682	-0.877364	0.877364	1.169818	0.877364	0.877364	1.169818	0.877364	0.877364	1.169818	0.877364	0.877364	1.169818	0.877364	0.332086	0.085000
0.159000	0.000000	0.087300	0.488333	0.488333	-0.439483	-0.878965	0.878965	1.171954	0.878965	0.878965	1.171954	0.878965	0.878965	1.171954	0.878965	0.878965	1.171954	0.878965	0.337870	0.085000
0.160000	0.000000	0.087300	0.489233	0.489233	-0.440293	-0.880587	0.880587	1.174115	0.880587	0.880587	1.174115	0.880587	0.880587	1.174115	0.880587	0.880587	1.174115	0.880587	0.343724	0.085000
0.161000	0.000000	0.087300	0.490145	0.490145	-0.441114	-0.882227	0.882227	1.176303	0.882227	0.882227	1.176303	0.882227	0.882227	1.176303	0.882227	0.882227	1.176303	0.882227	0.349649	0.085000
0.162000	0.000000	0.087300	0.491067	0.491067	-0.441944	-0.883887	0.883887	1.178517	0.883887	0.883887	1.178517	0.883887	0.883887	1.178517	0.883887	0.883887	1.178517	0.883887	0.355644	0.085000
0.163000	0.000000	0.087300	0.492001	0.492001	-0.442784	-0.885567	0.885567	1.180756	0.885567	0.885567	1.180756	0.885567	0.885567	1.180756	0.885567	0.885567	1.180756	0.885567	0.361710	0.085000
0.164000	0.000000	0.087300	0.492945	0.492945	-0.443633	-0.887267	0.887267	1.183022	0.887267	0.887267	1.183022	0.887267	0.887267	1.183022	0.887267	0.887267	1.183022	0.887267	0.367847	0.085000
0.165000	0.000000	0.087300	0.493900	0.493900	-0.444493	-0.888986	0.888986	1.185315	0.888986	0.888986	1.185315	0.888986	0.888986	1.185315	0.888986	0.888986	1.185315	0.888986	0.374055	0.085000
0.166000	0.000000	0.087300	0.494866	0.494866	-0.445363	-0.890725	0.890725	1.187633	0.890725	0.890725	1.187633	0.890725	0.890725	1.187633	0.890725	0.890725	1.187633	0.890725	0.380335	0.085000
0.167000	0.000000	0.087300	0.495843	0.495843	-0.446242	-0.892484	0.892484	1.189979	0.892484	0.892484	1.189979	0.892484	0.892484	1.189979	0.892484	0.892484	1.189979	0.892484	0.386687	0.085000
0.168000	0.000000	0.087300	0.496832	0.496832	-0.447132	-0.894263	0.894263	1.192351	0.894263	0.894263	1.192351	0.894263	0.894263	1.192351	0.894263	0.894263	1.192351	0.894263	0.393112	0.085000
0.169000	0.000000	0.087300	0.497831	0.497831	-0.448031	-0.896062	0.896062	1.194750	0.896062	0.896062	1.194750	0.896062	0.896062	1.194750	0.896062	0.896062	1.194750	0.896062	0.399608	0.085000
0.170000	0.000000	0.087300	0.498842	0.498842	-0.448941	-0.897882	0.897882	1.197176	0.897882	0.897882	1.197176	0.897882	0.897882	1.197176	0.897882	0.897882	1.197176	0.897882	0.406178	0.085000
0.171000	0.000000	0.087300	0.499864	0.499864	-0.449861	-0.899721	0.899721	1.199628	0.899721	0.899721	1.199628	0.899721	0.899721	1.199628	0.899721	0.899721	1.199628	0.899721	0.412820	0.085000
0.172000	0.000000	0.087300	0.500897	0.500897	-0.450790	-0.901581	0.901581	1.202108	0.901581	0.901581	1.202108	0.901581	0.901581	1.202108	0.901581	0.901581	1.202108	0.901581	0.419536	0.085000
0.173000	0.000000	0.087300	0.501942	0.501942	-0.451730	-0.903461	0.903461	1.204614	0.903461	0.903461	1.204614	0.903461	0.903461	1.204614	0.903461	0.903461	1.204614	0.903461	0.426324	0.085000
0.174000	0.000000	0.087300	0.502998	0.502998	-0.452681	-0.905361	0.905361	1.207148	0.905361	0.905361	1.207148	0.905361	0.905361	1.207148	0.905361	0.905361	1.207148	0.905361	0.433186	0.085000
0.175000	0.000000	0.087300	0.504065	0.504065	-0.453641	-0.907282	0.907282	1.209709	0.907282	0.907282	1.209709	0.907282	0.907282	1.209709	0.907282	0.907282	1.209709	0.907282	0.440122	0.085000
0.176000	0.000000	0.087300	0.505143	0.505143	-0.454611	-0.909223	0.909223	1.212297	0.909223	0.909223	1.212297	0.909223	0.909223	1.212297	0.909223	0.909223	1.212297	0.909223	0.447131	0.085000
0.177000	0.000000	0.087300	0.506233	0.506233	-0.455592	-0.911184	0.911184	1.214912	0.911184	0.911184	1.214912	0.911184	0.911184	1.214912	0.911184	0.911184	1.214912	0.911184	0.454214	0.085000
0.178000	0.000000	0.087300	0.507334	0.507334	-0.456583	-0.913166	0.913166	1.217555	0.913166	0.913166	1.217555	0.913166	0.913166	1.217555	0.913166	0.913166	1.217555	0.913166	0.461370	0.085000
0.179000	0.000000	0.087300	0.508446	0.508446	-0.457584	-0.915168	0.915168	1.220224	0.915168	0.915168	1.220224	0.915168	0.915168	1.220224	0.915168	0.915168	1.220224	0.915168	0.468601	0.085000
0.180000	0.000000	0.087300	0.509570	0.509570	-0.458595	-0.917191	0.917191	1.222921	0.917191	0.917191	1.222921	0.917191	0.917191	1.222921	0.917191	0.917191	1.222921	0.917191	0.475905	0.085000
0.181000	0.000000	0.087300	0.510705	0.510705	-0.459617	-0.919234	0.919234	1.225646	0.919234	0.919234	1.225646	0.919234	0.919234	1.225646	0.919234	0.919234	1.225646	0.919234	0.483283	0.085000
0.182000	0.000000	0.087300	0.511852	0.511852	-0.460649	-0.921298	0.921298	1.228397	0.921298	0.921298	1.228397	0.921298	0.921298	1.228397	0.921298	0.921298	1.228397	0.921298	0.490735	0.085000
0.183000	0.000000	0.087300	0.513009	0.513009	-0.461691	-0.923382	0.923382	1.231176	0.923382	0.923382	1.231176	0.923382	0.923382	1.231176	0.923382	0.923382	1.231176	0.923382	0.498260	0.085000
0.184000	0.000000	0.087300	0.514179	0.514179	-0.462743	-0.925486	0.925486	1.233982	0.925486	0.925486	1.233982	0.925486	0.925486	1.233982	0.925486	0.925486	1.233982	0.925486	0.505860	0.085000
0.185000	0.000000	0.087300	0.515359	0.515359	-0.463806	-0.927611	0.927611	1.236815	0.927611	0.927611	1.236815	0.927611	0.927611	1.236815	0.927611	0.927611	1.236815	0.927611	0.513532	0.085000
0.186000	0.000000	0.087300	0.516551	0.516551	-0.464878	-0.929756	0.929756	1.239675	0.929756	0.929756	1.239675	0.929756	0.929756	1.239675	0.929756	0.929756	1.239675	0.929756	0.521279	0.085000
